<?xml version="1.0" encoding="utf-8"?>
<!-- Generator: Adobe Illustrator 24.1.0, SVG Export Plug-In . SVG Version: 6.00 Build 0)  -->
<svg version="1.1" id="Ebene_1" xmlns="http://www.w3.org/2000/svg" xmlns:xlink="http://www.w3.org/1999/xlink" x="0px" y="0px"
	 viewBox="0 0 417.1 414.3" style="enable-background:new 0 0 417.1 414.3;" xml:space="preserve">
<style type="text/css">
	.st0{fill:#FFFFFF;}
</style>
<desc>European flag</desc>
<g>
	<polygon class="st0" points="208.5,0 201.8,20.7 180,20.7 197.6,33.5 190.9,54.3 208.5,41.5 226.2,54.3 219.4,33.5 237.1,20.7 
		215.3,20.7 	"/>
	<polygon class="st0" points="215.3,380.7 208.5,360 201.8,380.7 180,380.7 197.6,393.5 190.9,414.3 208.5,401.5 226.2,414.3 
		219.4,393.5 237.1,380.7 	"/>
	<polygon class="st0" points="28.5,221.5 46.2,234.3 39.4,213.5 57.1,200.7 35.3,200.7 28.5,180 21.8,200.7 0,200.7 17.6,213.5 
		10.9,234.3 	"/>
	<polygon class="st0" points="118.5,24.1 111.8,44.8 90,44.8 107.6,57.7 100.9,78.4 118.5,65.6 136.2,78.4 129.4,57.7 147.1,44.8 
		125.3,44.8 	"/>
	<polygon class="st0" points="52.6,90 45.9,110.7 24.1,110.7 41.7,123.5 35,144.3 52.6,131.5 70.3,144.3 63.5,123.5 81.2,110.7 
		59.4,110.7 	"/>
	<polygon class="st0" points="59.4,290.7 52.6,270 45.9,290.7 24.1,290.7 41.7,303.5 35,324.3 52.6,311.5 70.3,324.3 63.5,303.5 
		81.2,290.7 	"/>
	<polygon class="st0" points="125.3,356.6 118.5,335.9 111.8,356.6 90,356.6 107.6,369.4 100.9,390.2 118.5,377.3 136.2,390.2 
		129.4,369.4 147.1,356.6 	"/>
	<polygon class="st0" points="417.1,200.7 395.3,200.7 388.5,180 381.8,200.7 360,200.7 377.6,213.5 370.9,234.3 388.5,221.5 
		406.2,234.3 399.4,213.5 	"/>
	<polygon class="st0" points="298.5,24.1 291.8,44.8 270,44.8 287.6,57.7 280.9,78.4 298.5,65.6 316.2,78.4 309.4,57.7 327.1,44.8 
		305.3,44.8 	"/>
	<polygon class="st0" points="353.5,123.5 346.8,144.3 364.4,131.5 382,144.3 375.3,123.5 392.9,110.7 371.2,110.7 364.4,90 
		357.7,110.7 335.9,110.7 	"/>
	<polygon class="st0" points="371.2,290.7 364.4,270 357.7,290.7 335.9,290.7 353.5,303.5 346.8,324.3 364.4,311.5 382,324.3 
		375.3,303.5 392.9,290.7 	"/>
	<polygon class="st0" points="305.3,356.6 298.5,335.9 291.8,356.6 270,356.6 287.6,369.4 280.9,390.2 298.5,377.3 316.2,390.2 
		309.4,369.4 327.1,356.6 	"/>
</g>
</svg>
