<svg viewBox="0,0,1363,400"><g class="grid" transform="translate(45,0)" fill="none" font-size="10" font-family="sans-serif" text-anchor="end"><path class="domain" stroke="currentColor" d="M1363,374.5H0.5V10.5H1363" stroke-width="0"></path><g class="tick" opacity="1" transform="translate(0,374.5)"><line stroke="#ccc" x2="1363" stroke-opacity="0.7"></line><text fill="currentColor" x="-3" dy="0.32em"></text></g><g class="tick" opacity="1" transform="translate(0,322.5)"><line stroke="#ccc" x2="1363" stroke-opacity="0.7"></line><text fill="currentColor" x="-3" dy="0.32em"></text></g><g class="tick" opacity="1" transform="translate(0,271.5)"><line stroke="#ccc" x2="1363" stroke-opacity="0.7"></line><text fill="currentColor" x="-3" dy="0.32em"></text></g><g class="tick" opacity="1" transform="translate(0,219.5)"><line stroke="#ccc" x2="1363" stroke-opacity="0.7"></line><text fill="currentColor" x="-3" dy="0.32em"></text></g><g class="tick" opacity="1" transform="translate(0,168.5)"><line stroke="#ccc" x2="1363" stroke-opacity="0.7"></line><text fill="currentColor" x="-3" dy="0.32em"></text></g><g class="tick" opacity="1" transform="translate(0,116.5)"><line stroke="#ccc" x2="1363" stroke-opacity="0.7"></line><text fill="currentColor" x="-3" dy="0.32em"></text></g><g class="tick" opacity="1" transform="translate(0,65.5)"><line stroke="#ccc" x2="1363" stroke-opacity="0.7"></line><text fill="currentColor" x="-3" dy="0.32em"></text></g><g class="tick" opacity="1" transform="translate(0,13.5)"><line stroke="#ccc" x2="1363" stroke-opacity="0.7"></line><text fill="currentColor" x="-3" dy="0.32em"></text></g></g><g><g fill="#d53e4f" class="group-cluster"><rect x="61.222066057624716" y="290" height="84" width="71.04778636683065"><title>Floors Lighting Floors Lighting
3,254</title></rect><rect x="153.4919184820801" y="282" height="92" width="71.04778636683065"><title>Floors Lighting Floors Lighting
3,576</title></rect><rect x="245.76177090653547" y="283" height="91" width="71.04778636683065"><title>Floors Lighting Floors Lighting
3,523</title></rect><rect x="338.03162333099084" y="287" height="87" width="71.04778636683065"><title>Floors Lighting Floors Lighting
3,363</title></rect><rect x="430.30147575544623" y="288" height="86" width="71.04778636683065"><title>Floors Lighting Floors Lighting
3,319</title></rect><rect x="522.5713281799017" y="289" height="85" width="71.04778636683065"><title>Floors Lighting Floors Lighting
3,302</title></rect><rect x="614.841180604357" y="287" height="87" width="71.04778636683065"><title>Floors Lighting Floors Lighting
3,393</title></rect><rect x="707.1110330288124" y="286" height="88" width="71.04778636683065"><title>Floors Lighting Floors Lighting
3,428</title></rect><rect x="799.3808854532678" y="286" height="88" width="71.04778636683065"><title>Floors Lighting Floors Lighting
3,417</title></rect><rect x="891.6507378777231" y="288" height="86" width="71.04778636683065"><title>Floors Lighting Floors Lighting
3,350</title></rect><rect x="983.9205903021785" y="286" height="88" width="71.04778636683065"><title>Floors Lighting Floors Lighting
3,428</title></rect><rect x="1076.190442726634" y="288" height="86" width="71.04778636683065"><title>Floors Lighting Floors Lighting
3,326</title></rect><rect x="1168.4602951510892" y="290" height="84" width="71.04778636683065"><title>Floors Lighting Floors Lighting
3,262</title></rect><rect x="1260.7301475755446" y="291" height="83" width="71.04778636683065"><title>Floors Lighting Floors Lighting
3,218</title></rect><text class="inline-label" fill="white" x="86.74595924104004" y="336">3,254</text><text class="inline-label" fill="white" x="179.01581166549545" y="332">3,576</text><text class="inline-label" fill="white" x="271.2856640899508" y="332.5">3,523</text><text class="inline-label" fill="white" x="363.5555165144062" y="334.5">3,363</text><text class="inline-label" fill="white" x="455.8253689388616" y="335">3,319</text><text class="inline-label" fill="white" x="548.095221363317" y="335.5">3,302</text><text class="inline-label" fill="white" x="640.3650737877723" y="334.5">3,393</text><text class="inline-label" fill="white" x="732.6349262122277" y="334">3,428</text><text class="inline-label" fill="white" x="824.9047786366831" y="334">3,417</text><text class="inline-label" fill="white" x="917.1746310611385" y="335">3,350</text><text class="inline-label" fill="white" x="1009.4444834855939" y="334">3,428</text><text class="inline-label" fill="white" x="1101.7143359100494" y="335">3,326</text><text class="inline-label" fill="white" x="1193.9841883345046" y="336">3,262</text><text class="inline-label" fill="white" x="1286.25404075896" y="336.5">3,218</text></g><g fill="#fc8d59" class="group-cluster"><rect x="61.222066057624716" y="177" height="113" width="71.04778636683065"><title>Floors Small Power Floors Small Power
4,400</title></rect><rect x="153.4919184820801" y="162" height="120" width="71.04778636683065"><title>Floors Small Power Floors Small Power
4,643</title></rect><rect x="245.76177090653547" y="164" height="119" width="71.04778636683065"><title>Floors Small Power Floors Small Power
4,630</title></rect><rect x="338.03162333099084" y="168" height="119" width="71.04778636683065"><title>Floors Small Power Floors Small Power
4,642</title></rect><rect x="430.30147575544623" y="170" height="118" width="71.04778636683065"><title>Floors Small Power Floors Small Power
4,584</title></rect><rect x="522.5713281799017" y="170" height="119" width="71.04778636683065"><title>Floors Small Power Floors Small Power
4,627</title></rect><rect x="614.841180604357" y="167" height="120" width="71.04778636683065"><title>Floors Small Power Floors Small Power
4,637</title></rect><rect x="707.1110330288124" y="164" height="122" width="71.04778636683065"><title>Floors Small Power Floors Small Power
4,728</title></rect><rect x="799.3808854532678" y="164" height="122" width="71.04778636683065"><title>Floors Small Power Floors Small Power
4,743</title></rect><rect x="891.6507378777231" y="168" height="120" width="71.04778636683065"><title>Floors Small Power Floors Small Power
4,644</title></rect><rect x="983.9205903021785" y="165" height="121" width="71.04778636683065"><title>Floors Small Power Floors Small Power
4,682</title></rect><rect x="1076.190442726634" y="169" height="119" width="71.04778636683065"><title>Floors Small Power Floors Small Power
4,622</title></rect><rect x="1168.4602951510892" y="172" height="118" width="71.04778636683065"><title>Floors Small Power Floors Small Power
4,567</title></rect><rect x="1260.7301475755446" y="180" height="111" width="71.04778636683065"><title>Floors Small Power Floors Small Power
4,314</title></rect><text class="inline-label" fill="white" x="86.74595924104004" y="237.5">4,400</text><text class="inline-label" fill="white" x="179.01581166549545" y="226">4,643</text><text class="inline-label" fill="white" x="271.2856640899508" y="227.5">4,630</text><text class="inline-label" fill="white" x="363.5555165144062" y="231.5">4,642</text><text class="inline-label" fill="white" x="455.8253689388616" y="233">4,584</text><text class="inline-label" fill="white" x="548.095221363317" y="233.5">4,627</text><text class="inline-label" fill="white" x="640.3650737877723" y="231">4,637</text><text class="inline-label" fill="white" x="732.6349262122277" y="229">4,728</text><text class="inline-label" fill="white" x="824.9047786366831" y="229">4,743</text><text class="inline-label" fill="white" x="917.1746310611385" y="232">4,644</text><text class="inline-label" fill="white" x="1009.4444834855939" y="229.5">4,682</text><text class="inline-label" fill="white" x="1101.7143359100494" y="232.5">4,622</text><text class="inline-label" fill="white" x="1193.9841883345046" y="235">4,567</text><text class="inline-label" fill="white" x="1286.25404075896" y="239.5">4,314</text></g><g fill="#fdd053" class="group-cluster"><rect x="61.222066057624716" y="133" height="44" width="71.04778636683065"><title>Kitchen consumption Kitchen consumption
1,693</title></rect><rect x="153.4919184820801" y="118" height="44" width="71.04778636683065"><title>Kitchen consumption Kitchen consumption
1,723</title></rect><rect x="245.76177090653547" y="120" height="44" width="71.04778636683065"><title>Kitchen consumption Kitchen consumption
1,706</title></rect><rect x="338.03162333099084" y="124" height="44" width="71.04778636683065"><title>Kitchen consumption Kitchen consumption
1,704</title></rect><rect x="430.30147575544623" y="126" height="44" width="71.04778636683065"><title>Kitchen consumption Kitchen consumption
1,710</title></rect><rect x="522.5713281799017" y="125" height="45" width="71.04778636683065"><title>Kitchen consumption Kitchen consumption
1,729</title></rect><rect x="614.841180604357" y="123" height="44" width="71.04778636683065"><title>Kitchen consumption Kitchen consumption
1,720</title></rect><rect x="707.1110330288124" y="119" height="45" width="71.04778636683065"><title>Kitchen consumption Kitchen consumption
1,737</title></rect><rect x="799.3808854532678" y="119" height="45" width="71.04778636683065"><title>Kitchen consumption Kitchen consumption
1,721</title></rect><rect x="891.6507378777231" y="124" height="44" width="71.04778636683065"><title>Kitchen consumption Kitchen consumption
1,702</title></rect><rect x="983.9205903021785" y="121" height="44" width="71.04778636683065"><title>Kitchen consumption Kitchen consumption
1,701</title></rect><rect x="1076.190442726634" y="125" height="44" width="71.04778636683065"><title>Kitchen consumption Kitchen consumption
1,699</title></rect><rect x="1168.4602951510892" y="129" height="43" width="71.04778636683065"><title>Kitchen consumption Kitchen consumption
1,696</title></rect><rect x="1260.7301475755446" y="136" height="44" width="71.04778636683065"><title>Kitchen consumption Kitchen consumption
1,705</title></rect><text class="inline-label" fill="white" x="86.74595924104004" y="159">1,693</text><text class="inline-label" fill="white" x="179.01581166549545" y="144">1,723</text><text class="inline-label" fill="white" x="271.2856640899508" y="146">1,706</text><text class="inline-label" fill="white" x="363.5555165144062" y="150">1,704</text><text class="inline-label" fill="white" x="455.8253689388616" y="152">1,710</text><text class="inline-label" fill="white" x="548.095221363317" y="151.5">1,729</text><text class="inline-label" fill="white" x="640.3650737877723" y="149">1,720</text><text class="inline-label" fill="white" x="732.6349262122277" y="145.5">1,737</text><text class="inline-label" fill="white" x="824.9047786366831" y="145.5">1,721</text><text class="inline-label" fill="white" x="917.1746310611385" y="150">1,702</text><text class="inline-label" fill="white" x="1009.4444834855939" y="147">1,701</text><text class="inline-label" fill="white" x="1101.7143359100494" y="151">1,699</text><text class="inline-label" fill="white" x="1193.9841883345046" y="154.5">1,696</text><text class="inline-label" fill="white" x="1286.25404075896" y="162">1,705</text></g><g fill="#c3d567" class="group-cluster"><rect x="61.222066057624716" y="109" height="24" width="71.04778636683065"><title>Landlord DB Landlord DB
957</title></rect><rect x="153.4919184820801" y="90" height="28" width="71.04778636683065"><title>Landlord DB Landlord DB
1,091</title></rect><rect x="245.76177090653547" y="92" height="28" width="71.04778636683065"><title>Landlord DB Landlord DB
1,099</title></rect><rect x="338.03162333099084" y="96" height="28" width="71.04778636683065"><title>Landlord DB Landlord DB
1,083</title></rect><rect x="430.30147575544623" y="98" height="28" width="71.04778636683065"><title>Landlord DB Landlord DB
1,093</title></rect><rect x="522.5713281799017" y="97" height="28" width="71.04778636683065"><title>Landlord DB Landlord DB
1,092</title></rect><rect x="614.841180604357" y="95" height="28" width="71.04778636683065"><title>Landlord DB Landlord DB
1,084</title></rect><rect x="707.1110330288124" y="91" height="28" width="71.04778636683065"><title>Landlord DB Landlord DB
1,090</title></rect><rect x="799.3808854532678" y="90" height="29" width="71.04778636683065"><title>Landlord DB Landlord DB
1,147</title></rect><rect x="891.6507378777231" y="95" height="29" width="71.04778636683065"><title>Landlord DB Landlord DB
1,118</title></rect><rect x="983.9205903021785" y="92" height="29" width="71.04778636683065"><title>Landlord DB Landlord DB
1,153</title></rect><rect x="1076.190442726634" y="97" height="28" width="71.04778636683065"><title>Landlord DB Landlord DB
1,101</title></rect><rect x="1168.4602951510892" y="102" height="27" width="71.04778636683065"><title>Landlord DB Landlord DB
1,020</title></rect><rect x="1260.7301475755446" y="114" height="22" width="71.04778636683065"><title>Landlord DB Landlord DB
862</title></rect><text class="inline-label" fill="white" x="86.74595924104004" y="125">957</text><text class="inline-label" fill="white" x="179.01581166549545" y="108">1,091</text><text class="inline-label" fill="white" x="271.2856640899508" y="110">1,099</text><text class="inline-label" fill="white" x="363.5555165144062" y="114">1,083</text><text class="inline-label" fill="white" x="455.8253689388616" y="116">1,093</text><text class="inline-label" fill="white" x="548.095221363317" y="115">1,092</text><text class="inline-label" fill="white" x="640.3650737877723" y="113">1,084</text><text class="inline-label" fill="white" x="732.6349262122277" y="109">1,090</text><text class="inline-label" fill="white" x="824.9047786366831" y="108.5">1,147</text><text class="inline-label" fill="white" x="917.1746310611385" y="113.5">1,118</text><text class="inline-label" fill="white" x="1009.4444834855939" y="110.5">1,153</text><text class="inline-label" fill="white" x="1101.7143359100494" y="115">1,101</text><text class="inline-label" fill="white" x="1193.9841883345046" y="119.5">1,020</text><text class="inline-label" fill="white" x="1286.25404075896" y="129">862</text></g><g fill="#89d1d0" class="group-cluster"><rect x="61.222066057624716" y="59" height="50" width="71.04778636683065"><title>Mechanical and PH Loads Mechanical and PH Loads
1,937</title></rect><rect x="153.4919184820801" y="27" height="63" width="71.04778636683065"><title>Mechanical and PH Loads Mechanical and PH Loads
2,448</title></rect><rect x="245.76177090653547" y="25" height="67" width="71.04778636683065"><title>Mechanical and PH Loads Mechanical and PH Loads
2,603</title></rect><rect x="338.03162333099084" y="33" height="63" width="71.04778636683065"><title>Mechanical and PH Loads Mechanical and PH Loads
2,454</title></rect><rect x="430.30147575544623" y="63" height="35" width="71.04778636683065"><title>Mechanical and PH Loads Mechanical and PH Loads
1,361</title></rect><rect x="522.5713281799017" y="57" height="40" width="71.04778636683065"><title>Mechanical and PH Loads Mechanical and PH Loads
1,569</title></rect><rect x="614.841180604357" y="32" height="63" width="71.04778636683065"><title>Mechanical and PH Loads Mechanical and PH Loads
2,452</title></rect><rect x="707.1110330288124" y="38" height="53" width="71.04778636683065"><title>Mechanical and PH Loads Mechanical and PH Loads
2,069</title></rect><rect x="799.3808854532678" y="31" height="59" width="71.04778636683065"><title>Mechanical and PH Loads Mechanical and PH Loads
2,275</title></rect><rect x="891.6507378777231" y="39" height="56" width="71.04778636683065"><title>Mechanical and PH Loads Mechanical and PH Loads
2,206</title></rect><rect x="983.9205903021785" y="30" height="62" width="71.04778636683065"><title>Mechanical and PH Loads Mechanical and PH Loads
2,406</title></rect><rect x="1076.190442726634" y="62" height="35" width="71.04778636683065"><title>Mechanical and PH Loads Mechanical and PH Loads
1,352</title></rect><rect x="1168.4602951510892" y="78" height="24" width="71.04778636683065"><title>Mechanical and PH Loads Mechanical and PH Loads
927</title></rect><rect x="1260.7301475755446" y="61" height="53" width="71.04778636683065"><title>Mechanical and PH Loads Mechanical and PH Loads
2,036</title></rect><text class="inline-label" fill="white" x="86.74595924104004" y="88">1,937</text><text class="inline-label" fill="white" x="179.01581166549545" y="62.5">2,448</text><text class="inline-label" fill="white" x="271.2856640899508" y="62.5">2,603</text><text class="inline-label" fill="white" x="363.5555165144062" y="68.5">2,454</text><text class="inline-label" fill="white" x="455.8253689388616" y="84.5">1,361</text><text class="inline-label" fill="white" x="548.095221363317" y="81">1,569</text><text class="inline-label" fill="white" x="640.3650737877723" y="67.5">2,452</text><text class="inline-label" fill="white" x="732.6349262122277" y="68.5">2,069</text><text class="inline-label" fill="white" x="824.9047786366831" y="64.5">2,275</text><text class="inline-label" fill="white" x="917.1746310611385" y="71">2,206</text><text class="inline-label" fill="white" x="1009.4444834855939" y="65">2,406</text><text class="inline-label" fill="white" x="1101.7143359100494" y="83.5">1,352</text><text class="inline-label" fill="white" x="1193.9841883345046" y="94">927</text><text class="inline-label" fill="white" x="1286.25404075896" y="91.5">2,036</text></g><g fill="#3288bd" class="group-cluster"><rect x="61.222066057624716" y="46" height="13" width="71.04778636683065"><title>Workshop and Reception DBs Workshop and Reception DBs
503</title></rect><rect x="153.4919184820801" y="12" height="15" width="71.04778636683065"><title>Workshop and Reception DBs Workshop and Reception DBs
584</title></rect><rect x="245.76177090653547" y="10" height="15" width="71.04778636683065"><title>Workshop and Reception DBs Workshop and Reception DBs
569</title></rect><rect x="338.03162333099084" y="20" height="13" width="71.04778636683065"><title>Workshop and Reception DBs Workshop and Reception DBs
502</title></rect><rect x="430.30147575544623" y="53" height="10" width="71.04778636683065"><title>Workshop and Reception DBs Workshop and Reception DBs
396</title></rect><rect x="522.5713281799017" y="47" height="10" width="71.04778636683065"><title>Workshop and Reception DBs Workshop and Reception DBs
369</title></rect><rect x="614.841180604357" y="16" height="16" width="71.04778636683065"><title>Workshop and Reception DBs Workshop and Reception DBs
599</title></rect><rect x="707.1110330288124" y="22" height="16" width="71.04778636683065"><title>Workshop and Reception DBs Workshop and Reception DBs
594</title></rect><rect x="799.3808854532678" y="17" height="14" width="71.04778636683065"><title>Workshop and Reception DBs Workshop and Reception DBs
573</title></rect><rect x="891.6507378777231" y="25" height="14" width="71.04778636683065"><title>Workshop and Reception DBs Workshop and Reception DBs
543</title></rect><rect x="983.9205903021785" y="14" height="16" width="71.04778636683065"><title>Workshop and Reception DBs Workshop and Reception DBs
600</title></rect><rect x="1076.190442726634" y="52" height="10" width="71.04778636683065"><title>Workshop and Reception DBs Workshop and Reception DBs
407</title></rect><rect x="1168.4602951510892" y="69" height="9" width="71.04778636683065"><title>Workshop and Reception DBs Workshop and Reception DBs
376</title></rect><rect x="1260.7301475755446" y="50" height="11" width="71.04778636683065"><title>Workshop and Reception DBs Workshop and Reception DBs
438</title></rect><text class="inline-label" fill="white" x="86.74595924104004" y="56.5">503</text><text class="inline-label" fill="white" x="179.01581166549545" y="23.5">584</text><text class="inline-label" fill="white" x="271.2856640899508" y="21.5">569</text><text class="inline-label" fill="white" x="363.5555165144062" y="30.5">502</text><text class="inline-label" fill="white" x="455.8253689388616" y="62">396</text><text class="inline-label" fill="white" x="548.095221363317" y="56">369</text><text class="inline-label" fill="white" x="640.3650737877723" y="28">599</text><text class="inline-label" fill="white" x="732.6349262122277" y="34">594</text><text class="inline-label" fill="white" x="824.9047786366831" y="28">573</text><text class="inline-label" fill="white" x="917.1746310611385" y="36">543</text><text class="inline-label" fill="white" x="1009.4444834855939" y="26">600</text><text class="inline-label" fill="white" x="1101.7143359100494" y="61">407</text><text class="inline-label" fill="white" x="1193.9841883345046" y="77.5">376</text><text class="inline-label" fill="white" x="1286.25404075896" y="59.5">438</text></g></g><g transform="translate(0,374)" fill="none" font-size="10" font-family="sans-serif" text-anchor="middle"><g class="tick" opacity="1" transform="translate(96.74595924104004,0)"><line stroke="currentColor" y2="6"></line><text fill="currentColor" y="9" dy="0.71em"> 8 Apr '20</text></g><g class="tick" opacity="1" transform="translate(189.01581166549545,0)"><line stroke="currentColor" y2="6"></line><text fill="currentColor" y="9" dy="0.71em"> 9 Apr '20</text></g><g class="tick" opacity="1" transform="translate(281.2856640899508,0)"><line stroke="currentColor" y2="6"></line><text fill="currentColor" y="9" dy="0.71em">10 Apr '20</text></g><g class="tick" opacity="1" transform="translate(373.5555165144062,0)"><line stroke="currentColor" y2="6"></line><text fill="currentColor" y="9" dy="0.71em">11 Apr '20</text></g><g class="tick" opacity="1" transform="translate(465.8253689388616,0)"><line stroke="currentColor" y2="6"></line><text fill="currentColor" y="9" dy="0.71em">12 Apr '20</text></g><g class="tick" opacity="1" transform="translate(558.095221363317,0)"><line stroke="currentColor" y2="6"></line><text fill="currentColor" y="9" dy="0.71em">13 Apr '20</text></g><g class="tick" opacity="1" transform="translate(650.3650737877723,0)"><line stroke="currentColor" y2="6"></line><text fill="currentColor" y="9" dy="0.71em">14 Apr '20</text></g><g class="tick" opacity="1" transform="translate(742.6349262122277,0)"><line stroke="currentColor" y2="6"></line><text fill="currentColor" y="9" dy="0.71em">15 Apr '20</text></g><g class="tick" opacity="1" transform="translate(834.9047786366831,0)"><line stroke="currentColor" y2="6"></line><text fill="currentColor" y="9" dy="0.71em">16 Apr '20</text></g><g class="tick" opacity="1" transform="translate(927.1746310611385,0)"><line stroke="currentColor" y2="6"></line><text fill="currentColor" y="9" dy="0.71em">17 Apr '20</text></g><g class="tick" opacity="1" transform="translate(1019.4444834855939,0)"><line stroke="currentColor" y2="6"></line><text fill="currentColor" y="9" dy="0.71em">18 Apr '20</text></g><g class="tick" opacity="1" transform="translate(1111.7143359100494,0)"><line stroke="currentColor" y2="6"></line><text fill="currentColor" y="9" dy="0.71em">19 Apr '20</text></g><g class="tick" opacity="1" transform="translate(1203.9841883345046,0)"><line stroke="currentColor" y2="6"></line><text fill="currentColor" y="9" dy="0.71em">20 Apr '20</text></g><g class="tick" opacity="1" transform="translate(1296.25404075896,0)"><line stroke="currentColor" y2="6"></line><text fill="currentColor" y="9" dy="0.71em">21 Apr '20</text></g></g><g transform="translate(40,0)" fill="none" font-size="10" font-family="sans-serif" text-anchor="end"><g class="tick" opacity="1" transform="translate(0,374.5)"><line stroke="currentColor" x2="-6"></line><text fill="currentColor" x="-9" dy="0.32em">0k</text></g><g class="tick" opacity="1" transform="translate(0,322.5)"><line stroke="currentColor" x2="-6"></line><text fill="currentColor" x="-9" dy="0.32em">2k</text></g><g class="tick" opacity="1" transform="translate(0,271.5)"><line stroke="currentColor" x2="-6"></line><text fill="currentColor" x="-9" dy="0.32em">4k</text></g><g class="tick" opacity="1" transform="translate(0,219.5)"><line stroke="currentColor" x2="-6"></line><text fill="currentColor" x="-9" dy="0.32em">6k</text></g><g class="tick" opacity="1" transform="translate(0,168.5)"><line stroke="currentColor" x2="-6"></line><text fill="currentColor" x="-9" dy="0.32em">8k</text></g><g class="tick" opacity="1" transform="translate(0,116.5)"><line stroke="currentColor" x2="-6"></line><text fill="currentColor" x="-9" dy="0.32em">10k</text></g><g class="tick" opacity="1" transform="translate(0,65.5)"><line stroke="currentColor" x2="-6"></line><text fill="currentColor" x="-9" dy="0.32em">12k</text></g><g class="tick" opacity="1" transform="translate(0,13.5)"><line stroke="currentColor" x2="-6"></line><text fill="currentColor" x="-9" dy="0.32em">14k</text></g></g></svg>